<svg width="175.025px" height="100px" xmlns="http://www.w3.org/2000/svg" viewBox="162.4875 14 175.025 122" style="background: rgba(0, 0, 0, 0);" preserveAspectRatio="xMidYMid"><defs><filter id="editing-offset"><feFlood flood-color="#f00" flood-opacity="0.5" result="c1"></feFlood><feFlood flood-color="#0f0" flood-opacity="0.5" result="c2"></feFlood><feFlood flood-color="#00f" flood-opacity="0.5" result="c3"></feFlood><feComposite operator="in" in="c1" in2="SourceAlpha" result="text-c1"></feComposite><feComposite operator="in" in="c2" in2="SourceAlpha" result="text-c2"></feComposite><feComposite operator="in" in="c3" in2="SourceAlpha" result="text-c3"></feComposite><feOffset in="text-c1" dx="-10" dy="0" result="text1"></feOffset><feOffset in="text-c2" dx="10" dy="0" result="text2"></feOffset><feOffset in="text-c3" dx="0" dy="0" result="text3"></feOffset><feMerge><feMergeNode in="text1"></feMergeNode><feMergeNode in="text2"></feMergeNode><feMergeNode in="text3"></feMergeNode></feMerge></filter></defs><g filter="url(#editing-offset)"><g transform="translate(193.39501023292542, 97.30500030517578)"><path d="M14.14 0L0.51 0L7.81-38.91L8.51-42.24L22.21-42.24L14.14 0ZM40.13-3.78L40.13-3.78L40.13-3.78Q38.40 1.28 31.74 1.28L31.74 1.28L31.74 1.28Q26.82 1.28 23.42-4.61L23.42-4.61L23.42-4.61Q19.97-10.50 19.33-20.10L19.33-20.10L19.33-20.10Q26.37-32.96 31.23-38.27L31.23-38.27L31.23-38.27Q35.90-43.33 40.77-43.33L40.77-43.33L40.77-43.33Q43.39-43.33 45.28-41.92L45.28-41.92L45.28-41.92Q47.17-40.51 47.62-38.27L47.62-38.27L47.62-38.27Q45.44-37.38 44.42-36.67L44.42-36.67L44.42-36.67Q41.86-34.75 38.40-30.46L38.40-30.46L32.58-23.49L32.58-23.49Q31.17-21.82 30.59-21.06L30.59-21.06L30.59-21.06Q31.55-15.68 34.43-10.37L34.43-10.37L34.43-10.37Q37.18-5.31 40.13-3.78ZM46.56-1.92L46.56-1.92L46.56-1.92Q45.06-3.58 44.38-6.21L44.38-6.21L44.38-6.21Q43.71-8.83 43.71-13.12L43.71-13.12L43.71-13.12Q43.71-17.41 45.18-21.31L45.18-21.31L45.18-21.31Q46.66-25.22 49.34-28.03L49.34-28.03L49.34-28.03Q54.85-33.92 63.94-33.92L63.94-33.92L63.94-33.92Q67.20-33.92 69.57-32.83L69.57-32.83L80.51-33.92L75.78-8.96L75.78-8.96Q75.58-8.19 75.58-6.78L75.58-6.78L75.58-6.78Q75.58-5.38 76.45-4.48L76.45-4.48L76.45-4.48Q77.31-3.58 78.59-3.46L78.59-3.46L78.59-3.46Q77.95-1.28 75.62 0L75.62 0L75.62 0Q73.28 1.28 70.66 1.28L70.66 1.28L70.66 1.28Q68.03 1.28 66.27 0.29L66.27 0.29L66.27 0.29Q64.51-0.70 64-2.37L64-2.37L64-2.37Q62.98-0.77 60.80 0.26L60.80 0.26L60.80 0.26Q58.62 1.28 55.71 1.28L55.71 1.28L55.71 1.28Q52.80 1.28 50.43 0.51L50.43 0.51L50.43 0.51Q48.06-0.26 46.56-1.92ZM60.06-27.90L60.06-27.90L60.06-27.90Q59.33-26.75 58.69-24.80L58.69-24.80L58.69-24.80Q58.05-22.85 56.99-17.63L56.99-17.63L56.99-17.63Q55.94-12.42 55.94-8.70L55.94-8.70L55.94-8.70Q55.94-4.99 56.51-3.90L56.51-3.90L56.51-3.90Q57.09-2.82 58.11-2.82L58.11-2.82L58.11-2.82Q60.16-2.82 61.66-4.77L61.66-4.77L61.66-4.77Q63.17-6.72 63.74-10.18L63.74-10.18L67.14-28.93L67.14-28.93Q65.79-30.08 64.22-30.08L64.22-30.08L64.22-30.08Q62.66-30.08 61.73-29.57L61.73-29.57L61.73-29.57Q60.80-29.06 60.06-27.90ZM103.10-22.46L103.10-22.46L103.10-22.46Q104-24.83 104-26.88L104-26.88L104-26.88Q104-30.66 100.93-30.66L100.93-30.66L100.93-30.66Q99.33-30.66 98.02-29.22L98.02-29.22L98.02-29.22Q96.70-27.78 96.70-25.98L96.70-25.98L96.70-25.98Q96.70-24.70 97.73-23.68L97.73-23.68L97.73-23.68Q99.20-22.27 102.98-19.97L102.98-19.97L102.98-19.97Q106.75-17.66 108.19-15.78L108.19-15.78L108.19-15.78Q109.63-13.89 109.63-11.30L109.63-11.30L109.63-11.30Q109.63-8.70 108.38-6.34L108.38-6.34L108.38-6.34Q107.14-3.97 104.90-2.30L104.90-2.30L104.90-2.30Q100.10 1.28 92.42 1.28L92.42 1.28L92.42 1.28Q88.26 1.28 85.06-0.90L85.06-0.90L85.06-0.90Q81.86-3.01 81.86-5.50L81.86-5.50L81.86-5.50Q81.86-8 83.68-9.47L83.68-9.47L83.68-9.47Q85.50-10.94 88.19-10.94L88.19-10.94L88.19-10.94Q90.88-10.94 92.54-9.92L92.54-9.92L92.54-9.92Q91.71-7.81 91.71-6.40L91.71-6.40L91.71-6.40Q91.71-2.18 95.30-2.18L95.30-2.18L95.30-2.18Q96.83-2.18 97.86-3.14L97.86-3.14L97.86-3.14Q98.88-4.10 98.88-5.76L98.88-5.76L98.88-5.76Q98.88-9.02 93.38-12.48L93.38-12.48L93.38-12.48Q88.90-15.42 87.87-16.58L87.87-16.58L87.87-16.58Q86.14-18.62 86.14-21.18L86.14-21.18L86.14-21.18Q86.14-23.74 87.36-26.18L87.36-26.18L87.36-26.18Q88.58-28.61 90.82-30.34L90.82-30.34L90.82-30.34Q95.49-33.92 103.62-33.92L103.62-33.92L103.62-33.92Q107.78-33.92 110.24-32.26L110.24-32.26L110.24-32.26Q112.70-30.59 112.70-27.78L112.70-27.78L112.70-27.78Q112.70-24.96 111.01-23.36L111.01-23.36L111.01-23.36Q109.31-21.76 106.24-21.76L106.24-21.76L106.24-21.76Q104.13-21.76 103.10-22.46Z"></path></g></g><style>text {
  font-size: 64px;
  font-family: Arial Black;
  dominant-baseline: central;
  text-anchor: middle;
}</style></svg>